<?xml version="1.0" encoding="UTF-8" standalone="no"?>
<svg
   xmlns:dc="http://purl.org/dc/elements/1.1/"
   xmlns:cc="http://creativecommons.org/ns#"
   xmlns:rdf="http://www.w3.org/1999/02/22-rdf-syntax-ns#"
   xmlns:svg="http://www.w3.org/2000/svg"
   xmlns="http://www.w3.org/2000/svg"
   id="svg4614"
   version="1.1"
   viewBox="0 0 92 25"
   height="25mm"
   width="92mm">
  <defs
     id="defs4608">
    <clipPath
       clipPathUnits="userSpaceOnUse"
       id="clipPath5185">
      <path
         d="M 0,595.28 H 841.89 V 0 H 0 Z"
         id="path5183" />
    </clipPath>
  </defs>
  <metadata
     id="metadata4611">
    <rdf:RDF>
      <cc:Work
         rdf:about="">
        <dc:format>image/svg+xml</dc:format>
        <dc:type
           rdf:resource="http://purl.org/dc/dcmitype/StillImage" />
        <dc:title></dc:title>
      </cc:Work>
    </rdf:RDF>
  </metadata>
  <g
     transform="translate(0,-272)"
     id="layer1">
    <g
       style="fill:#ffffff"
       transform="translate(-36.864617,209.02796)"
       id="g5528">
      <g
         style="fill:#ffffff"
         id="g5169"
         transform="matrix(0.65431755,0,0,-0.65431755,67.906888,65.420973)">
        <path
           d="M 0,0 -4.162,-11.205 H -5.794 L -9.972,0 h 1.648 L -4.978,-9.012 -1.617,0 Z"
           style="fill:#ffffff;fill-opacity:1;fill-rule:nonzero;stroke:none"
           id="path5171" />
      </g>
      <path
         d="m 69.788835,72.75234 h -1.026624 v -7.331629 h 1.026624 z"
         style="fill:#ffffff;fill-opacity:1;fill-rule:nonzero;stroke:none;stroke-width:0.65431756"
         id="path5173" />
      <path
         id="path5177"
         style="fill:#ffffff;fill-opacity:1;fill-rule:nonzero;stroke:none;stroke-width:0.65431756"
         d="m 72.804388,70.196705 h 2.576703 l -1.288352,-3.372353 z m 1.822275,-4.775864 2.796553,7.331628 H 76.354715 L 75.726572,71.0977 h -3.267664 l -0.628143,1.654769 h -1.068501 l 2.796553,-7.331628 z" />
      <g
         style="fill:#ffffff"
         id="g5187"
         transform="matrix(0.65431755,0,0,-0.65431755,83.682091,72.857094)">
        <path
           d="m 0,0 c -2.545,0 -4.45,1.265 -4.45,4.85 v 6.515 h 1.569 V 4.85 c 0,-2.593 1.329,-3.313 2.881,-3.313 1.553,0 2.881,0.72 2.881,3.313 v 6.515 H 4.45 V 4.85 C 4.45,1.265 2.561,0 0,0"
           style="fill:#ffffff;fill-opacity:1;fill-rule:nonzero;stroke:none"
           id="path5189" />
      </g>
      <g
         style="fill:#ffffff"
         id="g5191"
         transform="matrix(0.65431755,0,0,-0.65431755,90.518858,68.374366)">
        <path
           d="m 0,0 c -0.608,0 -1.168,-0.208 -1.601,-0.417 l -0.656,-0.335 v -5.939 h -1.569 v 8.003 h 1.297 l 0.272,-0.704 0.528,0.272 c 0.592,0.304 1.296,0.592 2.193,0.592 1.536,0 2.673,-1.024 2.689,-2.897 V -6.691 H 1.584 v 4.818 C 1.584,-0.512 0.928,0 0,0"
           style="fill:#ffffff;fill-opacity:1;fill-rule:nonzero;stroke:none"
           id="path5193" />
      </g>
      <path
         d="m 94.977443,72.75234 h -1.0155 v -5.236505 h 1.0155 z m 0.04188,-6.12703 h -1.099907 v -0.984094 h 1.099907 z"
         style="fill:#ffffff;fill-opacity:1;fill-rule:nonzero;stroke:none;stroke-width:0.65431756"
         id="path5195" />
      <g
         style="fill:#ffffff"
         id="g5197"
         transform="matrix(0.65431755,0,0,-0.65431755,97.835504,72.75234)">
        <path
           d="m 0,0 -3.153,8.003 h 1.537 l 2.385,-6.05 2.384,6.05 H 4.69 L 1.537,0 Z"
           style="fill:#ffffff;fill-opacity:1;fill-rule:nonzero;stroke:none"
           id="path5199" />
      </g>
      <g
         style="fill:#ffffff"
         id="g5201"
         transform="matrix(0.65431755,0,0,-0.65431755,102.2742,69.673055)">
        <path
           d="M 0,0 H 4.386 C 4.322,1.36 3.585,2.161 2.337,2.161 1.137,2.161 0.192,1.457 0,0 m -0.016,-1.153 c 0.096,-1.52 0.976,-2.368 2.273,-2.368 1.12,0 1.745,0.479 2.001,1.264 H 5.747 C 5.506,-3.858 4.29,-4.866 2.257,-4.866 c -2.241,0 -3.794,1.52 -3.794,4.017 v 0.321 c 0,2.465 1.585,3.985 3.874,3.985 2.097,0 3.57,-1.424 3.57,-3.937 v -0.673 z"
           style="fill:#ffffff;fill-opacity:1;fill-rule:nonzero;stroke:none"
           id="path5203" />
      </g>
      <g
         style="fill:#ffffff"
         id="g5205"
         transform="matrix(0.65431755,0,0,-0.65431755,108.59791,68.720041)">
        <path
           d="m 0,0 -0.544,-0.272 v -5.891 h -1.569 v 8.004 h 1.297 L -0.544,1.072 0,1.376 C 0.656,1.745 1.168,1.841 2.161,1.841 V 0.352 C 1.152,0.352 0.528,0.256 0,0"
           style="fill:#ffffff;fill-opacity:1;fill-rule:nonzero;stroke:none"
           id="path5207" />
      </g>
      <g
         style="fill:#ffffff"
         id="g5209"
         transform="matrix(0.65431755,0,0,-0.65431755,112.67045,70.52164)">
        <path
           d="m 0,0 -0.512,0.08 c -1.585,0.24 -2.721,0.8 -2.721,2.305 0,1.681 1.52,2.369 3.265,2.369 1.808,0 3.057,-0.768 3.169,-2.513 H 1.712 C 1.616,3.122 0.96,3.521 0,3.521 c -0.993,0 -1.745,-0.368 -1.745,-1.12 0,-0.72 0.608,-0.992 1.921,-1.168 L 0.64,1.168 C 2.337,0.929 3.313,0.336 3.313,-1.12 3.313,-2.769 1.984,-3.569 0,-3.569 c -1.953,0 -3.282,0.768 -3.41,2.513 h 1.473 c 0.208,-0.897 0.8,-1.265 1.953,-1.265 1.104,0 1.76,0.401 1.76,1.137 C 1.76,-0.432 1.296,-0.208 0,0"
           style="fill:#ffffff;fill-opacity:1;fill-rule:nonzero;stroke:none"
           id="path5211" />
      </g>
      <path
         d="m 116.92064,72.75234 h -1.0155 v -5.236505 h 1.0155 z m 0.0419,-6.12703 h -1.09991 v -0.984094 h 1.09991 z"
         style="fill:#ffffff;fill-opacity:1;fill-rule:nonzero;stroke:none;stroke-width:0.65431756"
         id="path5213" />
      <g
         style="fill:#ffffff"
         id="g5215"
         transform="matrix(0.65431755,0,0,-0.65431755,119.70567,67.515574)">
        <path
           d="M 0,0 H 2.241 V -1.473 H 0 V -5.298 C 0,-6.131 0.256,-6.531 1.072,-6.531 H 2.337 V -8.003 H 0.769 c -1.761,0 -2.322,0.912 -2.322,2.689 v 3.841 H -2.961 V 0 h 1.408 V 1.937 H 0 Z"
           style="fill:#ffffff;fill-opacity:1;fill-rule:nonzero;stroke:none"
           id="path5217" />
      </g>
      <g
         style="fill:#ffffff"
         id="g5219"
         transform="matrix(0.65431755,0,0,-0.65431755,123.72547,72.75234)">
        <path
           d="m 0,0 -3.345,8.003 h 1.616 L 0.768,1.921 3.153,8.003 H 4.722 L 0.32,-3.201 h -1.569 z"
           style="fill:#ffffff;fill-opacity:1;fill-rule:nonzero;stroke:none"
           id="path5221" />
      </g>
      <g
         style="fill:#ffffff"
         id="g5223"
         transform="matrix(0.65431755,0,0,-0.65431755,65.194086,83.326177)">
        <path
           d="m 0,0 c -2.881,0 -5.25,2.065 -5.25,5.747 v 0.144 c 0,3.633 2.369,5.634 5.25,5.634 2.465,0 4.402,-1.265 4.738,-3.618 H 3.105 C 2.737,9.252 1.601,9.972 0,9.972 -2.049,9.972 -3.666,8.563 -3.666,5.891 V 5.747 c 0,-2.705 1.617,-4.194 3.666,-4.194 1.649,0 2.849,0.864 3.153,2.113 H 4.786 C 4.498,1.376 2.529,0 0,0"
           style="fill:#ffffff;fill-opacity:1;fill-rule:nonzero;stroke:none"
           id="path5225" />
      </g>
      <g
         style="fill:#ffffff"
         id="g5227"
         transform="matrix(0.65431755,0,0,-0.65431755,70.019024,80.665787)">
        <path
           d="m 0,0 c 0,-1.601 0.929,-2.657 2.337,-2.657 1.473,0 2.337,1.056 2.337,2.673 v 0.176 c 0,1.664 -0.88,2.657 -2.305,2.657 C 0.993,2.849 0,1.856 0,0.192 Z m 6.243,0.016 c 0,-2.529 -1.633,-4.098 -3.906,-4.098 -2.193,0 -3.905,1.569 -3.905,4.098 V 0.24 c 0,2.529 1.744,4.033 3.937,4.033 2.241,0 3.874,-1.504 3.874,-4.033 z"
           style="fill:#ffffff;fill-opacity:1;fill-rule:nonzero;stroke:none"
           id="path5229" />
      </g>
      <path
         d="m 76.175629,83.22142 h -1.016155 v -7.331629 h 1.016155 z"
         style="fill:#ffffff;fill-opacity:1;fill-rule:nonzero;stroke:none;stroke-width:0.65431756"
         id="path5231" />
      <path
         d="m 78.635862,83.22142 h -1.016153 v -7.331629 h 1.016153 z"
         style="fill:#ffffff;fill-opacity:1;fill-rule:nonzero;stroke:none;stroke-width:0.65431756"
         id="path5233" />
      <g
         style="fill:#ffffff"
         id="g5235"
         transform="matrix(0.65431755,0,0,-0.65431755,80.729026,80.142137)">
        <path
           d="M 0,0 H 4.386 C 4.322,1.36 3.585,2.161 2.337,2.161 1.137,2.161 0.192,1.457 0,0 m -0.016,-1.153 c 0.096,-1.52 0.976,-2.368 2.273,-2.368 1.12,0 1.745,0.479 2.001,1.264 H 5.747 C 5.506,-3.858 4.29,-4.866 2.257,-4.866 c -2.241,0 -3.794,1.52 -3.794,4.017 v 0.321 c 0,2.464 1.585,3.985 3.874,3.985 2.097,0 3.57,-1.424 3.57,-3.937 v -0.673 z"
           style="fill:#ffffff;fill-opacity:1;fill-rule:nonzero;stroke:none"
           id="path5237" />
      </g>
      <g
         style="fill:#ffffff"
         id="g5239"
         transform="matrix(0.65431755,0,0,-0.65431755,89.032577,81.891322)">
        <path
           d="M 0,0 0.208,0.144 V 3.906 L 0,4.05 c -0.384,0.24 -0.977,0.592 -1.809,0.592 -1.313,0 -2.289,-0.929 -2.289,-2.577 V 1.841 c 0,-1.537 0.912,-2.433 2.273,-2.433 0.832,0 1.441,0.336 1.825,0.592 m 0.208,-1.216 -0.16,-0.128 c -0.352,-0.273 -1.152,-0.737 -2.145,-0.737 -2.081,0 -3.553,1.457 -3.553,3.874 v 0.304 c 0,2.417 1.472,4.033 3.553,4.033 0.993,0 1.793,-0.464 2.145,-0.736 L 0.208,5.266 0.48,5.971 h 1.281 v -7.668 c 0,-2.401 -1.377,-3.697 -3.618,-3.697 -1.985,0 -3.33,0.896 -3.521,2.657 h 1.552 c 0.224,-0.88 0.881,-1.264 1.969,-1.264 1.36,0 2.065,0.784 2.065,2.256 z"
           style="fill:#ffffff;fill-opacity:1;fill-rule:nonzero;stroke:none"
           id="path5241" />
      </g>
      <g
         style="fill:#ffffff"
         id="g5243"
         transform="matrix(0.65431755,0,0,-0.65431755,92.276355,80.142137)">
        <path
           d="M 0,0 H 4.386 C 4.322,1.36 3.585,2.161 2.337,2.161 1.137,2.161 0.192,1.457 0,0 m -0.016,-1.153 c 0.096,-1.52 0.976,-2.368 2.273,-2.368 1.12,0 1.745,0.479 2.001,1.264 H 5.747 C 5.506,-3.858 4.29,-4.866 2.257,-4.866 c -2.241,0 -3.794,1.52 -3.794,4.017 v 0.321 c 0,2.464 1.585,3.985 3.874,3.985 2.097,0 3.57,-1.424 3.57,-3.937 v -0.673 z"
           style="fill:#ffffff;fill-opacity:1;fill-rule:nonzero;stroke:none"
           id="path5245" />
      </g>
    </g>
    <g
       style="stroke:#ffffff"
       transform="matrix(1.0044364,0,0,1.0044364,-32.100563,206.94212)"
       id="g5456">
      <g
         style="stroke:#ffffff"
         id="g5247"
         transform="matrix(0.35277777,0,0,-0.35277777,43.932727,81.845802)">
        <path
           d="m 0,0 14.082,-13.65 v 9.768"
           style="fill:none;stroke:#ffffff;stroke-width:0.75;stroke-linecap:butt;stroke-linejoin:miter;stroke-miterlimit:10;stroke-dasharray:none;stroke-opacity:1"
           id="path5249" />
      </g>
      <g
         style="stroke:#ffffff"
         id="g5251"
         transform="matrix(0.35277777,0,0,-0.35277777,48.724014,70.970687)">
        <path
           d="m 0,0 15.719,5.123 v -15.149 l -29.301,-7.152"
           style="fill:none;stroke:#ffffff;stroke-width:0.75;stroke-linecap:butt;stroke-linejoin:miter;stroke-miterlimit:10;stroke-dasharray:none;stroke-opacity:1"
           id="path5253" />
      </g>
      <g
         style="stroke:#ffffff"
         id="g5255"
         transform="matrix(0.35277777,0,0,-0.35277777,43.932727,77.030597)">
        <path
           d="M 0,0 -25.3,27.301 V 11.075 L 0,-13.649"
           style="fill:none;stroke:#ffffff;stroke-width:0.75;stroke-linecap:butt;stroke-linejoin:miter;stroke-miterlimit:10;stroke-dasharray:none;stroke-opacity:1"
           id="path5257" />
      </g>
      <g
         style="stroke:#ffffff"
         id="g5259"
         transform="matrix(0.35277777,0,0,-0.35277777,43.932727,77.030597)">
        <path
           d="M 0,0 13.582,12.84 V 27.301 L 0,13.651 v -27.3"
           style="fill:none;stroke:#ffffff;stroke-width:0.75;stroke-linecap:butt;stroke-linejoin:miter;stroke-miterlimit:10;stroke-dasharray:none;stroke-opacity:1"
           id="path5261" />
      </g>
      <g
         style="stroke:#ffffff"
         id="g5263"
         transform="matrix(0.35277777,0,0,-0.35277777,43.932727,77.030597)">
        <path
           d="M 0,0 29.3,-7.577 V -21.728 L 0,-13.649 -25.3,-25.3 v 14.726 l 15.516,6.486"
           style="fill:none;stroke:#ffffff;stroke-width:0.75;stroke-linecap:butt;stroke-linejoin:miter;stroke-miterlimit:10;stroke-dasharray:none;stroke-opacity:1"
           id="path5265" />
      </g>
    </g>
  </g>
</svg>
